{"title":"Scooby-Doo Abracadabra-Doo 2010 1008p WEB-DL SSloco ","uid":11982038,"size":614431090,"categoryP":"video","categoryS":"hd___movies","magnet":"?xt=urn:btih:63c85723d7c5429b24494fac997d2c69bfc11374&amp;dn=Scooby-Doo+Abracadabra-Doo+2010+1008p+WEB-DL+SSloco+&amp;tr=udp%3A%2F%2Ftracker.openbittorrent.com%3A80&amp;tr=udp%3A%2F%2Fopen.demonii.com%3A1337&amp;tr=udp%3A%2F%2Ftracker.coppersurfer.tk%3A6969&amp;tr=udp%3A%2F%2Fexodus.desync.com%3A6969","seeders":0,"leechers":1,"uploader":"myhoes14","files":1,"time":1433245596,"description":"Source:Scooby-Doo Abracadabra-Doo 2010 1080p WEB-DL H264 DD5 1-HDCLUB \n\n\nMedia Info\n\n\n\nFormat : MPEG-4\nFormat profile : Base Media\nCodec ID : isom\nFile size : 586 MiB\nDuration : 1h 16mn\nOverall bit rate mode : Variable\nOverall bit rate : 1 072 Kbps\nEncoded date : UTC 2015-05-22 08:29:29\nTagged date : UTC 2015-05-22 08:29:29\n\nVideo\nID : 1\nFormat : AVC\nFormat/Info : Advanced Video Codec\nFormat profile : &lt;a class=&quot;__cf_email__&quot; href=&quot;/cdn-cgi/l/email-protection&quot; data-cfemail=&quot;1b53727c735b572f352a&quot;&gt;[email&amp;#160;protected]&lt;/a&gt;&lt;script data-cfhash='f9e31' type=&quot;text/javascript&quot;&gt;\n/* &lt;![CDATA[ */!function(){try{var t=&quot;currentScript&quot;in document?document.currentScript:function(){for(var t=document.getElementsByTagName(&quot;script&quot;),e=t.length;e--;)if(t[e].getAttribute(&quot;data-cfhash&quot;))return t[e]}();if(t&amp;&amp;t.previousSibling){var e,r,n,i,c=t.previousSibling,a=c.getAttribute(&quot;data-cfemail&quot;);if(a){for(e=&quot;&quot;,r=parseInt(a.substr(0,2),16),n=2;a.length-n;n+=2)i=parseInt(a.substr(n,2),16)^r,e+=String.fromCharCode(i);e=document.createTextNode(e),c.parentNode.replaceChild(e,c)}t.parentNode.removeChild(t);}}catch(u){}}()/* ]]&gt; */&lt;/script&gt;\nFormat settings, CABAC : Yes\nFormat settings, ReFrames : 4 frames\nCodec ID : avc1\nCodec ID/Info : Advanced Video Coding\nDuration : 1h 16mn\nBit rate : 1 000 Kbps\nMaximum bit rate : 8 203 Kbps\nWidth : 1 800 pixels\nHeight : 1 008 pixels\nDisplay aspect ratio : 16:9\nFrame rate mode : Constant\nFrame rate : 23.976 fps\nColor space : YUV\nChroma subsampling : 4:2:0\nBit depth : 8 bits\nScan type : Progressive\nBits/(Pixel*Frame) : 0.023\nStream size : 547 MiB (93%)\nWriting library : x264 core 146 r2538 121396c\nEncoding settings : cabac=1 / ref=4 / deblock=1:1:1 / analyse=0x3:0x133 / me=umh / subme=9 / psy=1 / psy_rd=0.40:0.00 / mixed_ref=1 / me_range=24 / chroma_me=1 / trellis=2 / 8x8dct=1 / cqm=0 / deadzone=21,11 / fast_pskip=1 / chroma_qp_offset=-2 / threads=6 / lookahead_threads=1 / sliced_threads=0 / nr=0 / decimate=1 / interlaced=0 / bluray_compat=0 / constrained_intra=0 / bframes=5 / b_pyramid=2 / b_adapt=2 / b_bias=0 / direct=3 / weightb=1 / open_gop=0 / weightp=2 / keyint=240 / keyint_min=23 / scenecut=40 / intra_refresh=0 / rc_lookahead=60 / rc=2pass / mbtree=1 / bitrate=1000 / ratetol=1.0 / qcomp=0.60 / qpmin=0 / qpmax=69 / qpstep=4 / cplxblur=20.0 / qblur=0.5 / vbv_maxrate=62500 / vbv_bufsize=78125 / nal_hrd=none / filler=0 / ip_ratio=1.40 / aq=1:0.60\nEncoded date : UTC 2015-05-22 08:29:29\nTagged date : UTC 2015-05-22 08:30:28\nColor primaries : BT.709\nTransfer characteristics : BT.709\nMatrix coefficients : BT.709\nColor range : Limited\n\nAudio\nID : 2\nFormat : AAC\nFormat/Info : Advanced Audio Codec\nFormat profile : HE-AAC / LC\nCodec ID : 40\nDuration : 1h 16mn\nBit rate mode : Variable\nBit rate : 68.2 Kbps\nMaximum bit rate : 93.7 Kbps\nChannel(s) : 2 channels\nChannel positions : Front: L R\nSampling rate : 48.0 KHz / 24.0 KHz\nCompression mode : Lossy\nStream size : 37.3 MiB (6%)\nLanguage : English\nEncoded date : UTC 2015-05-22 08:03:55\nTagged date : UTC 2015-05-22 08:30:28\n\nText\nID : 3\nFormat : Timed Text\nCodec ID : tx3g\nDuration : 1h 16mn\nBit rate mode : Variable\nBit rate : 79 bps\nStream size : 44.4 KiB (0%)\nTitle : English @ SRT\nLanguage : English\nEncoded date : UTC 2015-05-22 08:30:28\nTagged date : UTC 2015-05-22 08:30:28","torrent":{"xt":"urn:btih:63c85723d7c5429b24494fac997d2c69bfc11374","amp;dn":"Scooby-Doo+Abracadabra-Doo+2010+1008p+WEB-DL+SSloco+","amp;tr":["udp%3A%2F%2Ftracker.openbittorrent.com%3A80","udp%3A%2F%2Fopen.demonii.com%3A1337","udp%3A%2F%2Ftracker.coppersurfer.tk%3A6969","udp%3A%2F%2Fexodus.desync.com%3A6969"],"infoHash":"63c85723d7c5429b24494fac997d2c69bfc11374","infoHashBuffer":{"type":"Buffer","data":[99,200,87,35,215,197,66,155,36,73,79,172,153,125,44,105,191,193,19,116]},"announce":[],"urlList":[]}}